<svg width="16" height="17" viewBox="0 0 16 17" fill="none" xmlns="http://www.w3.org/2000/svg">
<path d="M12 0.726562H9.92188C9.33854 0.726562 8.8125 0.820312 8.34375 1.00781C7.86458 1.1849 7.45833 1.44531 7.125 1.78906C6.79167 2.13281 6.53646 2.54948 6.35938 3.03906C6.18229 3.51823 6.09375 4.0599 6.09375 4.66406V6.47656H4C3.90625 6.47656 3.82812 6.50781 3.76562 6.57031C3.70312 6.63281 3.67188 6.71094 3.67188 6.80469V9.42969C3.67188 9.52344 3.70312 9.60156 3.76562 9.66406C3.82812 9.72656 3.90625 9.75781 4 9.75781H6.09375V16.3984C6.09375 16.4922 6.125 16.5703 6.1875 16.6328C6.25 16.6953 6.32292 16.7266 6.40625 16.7266H9.14062C9.22396 16.7266 9.29948 16.6953 9.36719 16.6328C9.4349 16.5703 9.46875 16.4922 9.46875 16.3984V9.75781H11.9062C11.9896 9.75781 12.0651 9.72656 12.1328 9.66406C12.2005 9.60156 12.2344 9.52344 12.2344 9.42969V6.80469C12.2344 6.76302 12.224 6.72135 12.2031 6.67969C12.1823 6.63802 12.1562 6.60156 12.125 6.57031C12.1042 6.53906 12.0729 6.51562 12.0312 6.5C11.9896 6.48438 11.9479 6.47656 11.9062 6.47656H9.46875V4.94531C9.46875 4.57031 9.53646 4.28906 9.67188 4.10156C9.80729 3.91406 10.1146 3.82031 10.5938 3.82031H12C12.0938 3.82031 12.1719 3.78906 12.2344 3.72656C12.2969 3.66406 12.3281 3.58594 12.3281 3.49219V1.05469C12.3281 0.960938 12.2969 0.882812 12.2344 0.820312C12.1719 0.757812 12.0938 0.726562 12 0.726562Z" fill="#0A1931"/>
</svg>
