<svg width="17" height="17" viewBox="0 0 17 17" fill="none" xmlns="http://www.w3.org/2000/svg">
<path d="M16.0234 6.38281C16.0234 6.38281 16.0221 6.29688 16.0195 6.125C16.0169 5.95312 16.0052 5.65365 15.9844 5.22656C15.9635 4.79948 15.9219 4.43229 15.8594 4.125C15.7969 3.81771 15.7135 3.53906 15.6094 3.28906C15.5052 3.01823 15.3776 2.76302 15.2266 2.52344C15.0755 2.28385 14.8958 2.0651 14.6875 1.86719C14.4896 1.66927 14.2708 1.49219 14.0312 1.33594C13.7917 1.17969 13.5365 1.04948 13.2656 0.945312C13.0156 0.851562 12.737 0.770833 12.4297 0.703125C12.1224 0.635417 11.7552 0.591146 11.3281 0.570312C10.901 0.549479 10.5156 0.536458 10.1719 0.53125C9.82812 0.526042 9.11458 0.523438 8.03125 0.523438C6.94792 0.523438 6.23438 0.526042 5.89062 0.53125C5.54688 0.536458 5.16146 0.549479 4.73438 0.570312C4.30729 0.591146 3.9401 0.632812 3.63281 0.695312C3.32552 0.757812 3.04688 0.841146 2.79688 0.945312C2.52604 1.04948 2.27083 1.17708 2.03125 1.32812C1.79167 1.47917 1.57292 1.65885 1.375 1.86719C1.16667 2.0651 0.984375 2.28385 0.828125 2.52344C0.671875 2.76302 0.546875 3.01823 0.453125 3.28906C0.348958 3.53906 0.265625 3.81771 0.203125 4.125C0.140625 4.43229 0.0989583 4.79948 0.078125 5.22656C0.0572917 5.65365 0.0442708 6.03906 0.0390625 6.38281C0.0338542 6.72656 0.03125 7.4401 0.03125 8.52344C0.03125 9.60677 0.0338542 10.3203 0.0390625 10.6641C0.0442708 11.0078 0.0572917 11.3932 0.078125 11.8203C0.0989583 12.2474 0.140625 12.6146 0.203125 12.9219C0.265625 13.2292 0.348958 13.5078 0.453125 13.7578C0.546875 14.0286 0.671875 14.2839 0.828125 14.5234C0.984375 14.763 1.16667 14.9818 1.375 15.1797C1.57292 15.388 1.79167 15.5703 2.03125 15.7266C2.27083 15.8828 2.52083 16.0078 2.78125 16.1016C3.04167 16.2057 3.32552 16.2891 3.63281 16.3516C3.9401 16.4141 4.30729 16.4557 4.73438 16.4766C5.16146 16.4974 5.54427 16.5104 5.88281 16.5156C6.22135 16.5208 6.9375 16.5234 8.03125 16.5234C9.11458 16.5234 9.82812 16.5208 10.1719 16.5156C10.5156 16.5104 10.901 16.4974 11.3281 16.4766C11.7552 16.4557 12.1224 16.4141 12.4297 16.3516C12.737 16.2891 13.0156 16.2057 13.2656 16.1016C13.8073 15.8932 14.2812 15.5859 14.6875 15.1797C15.0938 14.7734 15.401 14.2995 15.6094 13.7578C15.7031 13.5078 15.7839 13.2292 15.8516 12.9219C15.9193 12.6146 15.9635 12.2474 15.9844 11.8203C15.9948 11.3932 16.0052 11.0078 16.0156 10.6641C16.026 10.3203 16.0312 9.60677 16.0312 8.52344C16.0312 7.4401 16.0286 6.72656 16.0234 6.38281ZM14.5469 11.7578C14.526 12.1536 14.487 12.4661 14.4297 12.6953C14.3724 12.9245 14.3177 13.1068 14.2656 13.2422C14.1302 13.5964 13.9297 13.9036 13.6641 14.1641C13.3984 14.4245 13.0938 14.6224 12.75 14.7578C12.6042 14.8203 12.4167 14.8776 12.1875 14.9297C11.9583 14.9818 11.651 15.0182 11.2656 15.0391C10.8385 15.0599 10.4609 15.0729 10.1328 15.0781C9.80469 15.0833 9.10417 15.0859 8.03125 15.0859C6.96875 15.0859 6.27083 15.0833 5.9375 15.0781C5.60417 15.0729 5.22396 15.0599 4.79688 15.0391C4.41146 15.0182 4.10417 14.9818 3.875 14.9297C3.64583 14.8776 3.45833 14.8203 3.3125 14.7578C3.14583 14.6953 2.98438 14.6146 2.82812 14.5156C2.67188 14.4167 2.52604 14.2995 2.39062 14.1641C2.26562 14.0391 2.15104 13.8984 2.04688 13.7422C1.94271 13.5859 1.85938 13.4193 1.79688 13.2422C1.74479 13.1068 1.6901 12.9245 1.63281 12.6953C1.57552 12.4661 1.54167 12.1536 1.53125 11.7578C1.51042 11.3411 1.4974 10.9661 1.49219 10.6328C1.48698 10.2995 1.48438 9.59635 1.48438 8.52344C1.48438 7.46094 1.48698 6.76302 1.49219 6.42969C1.4974 6.09635 1.51042 5.72135 1.53125 5.30469C1.54167 4.90885 1.57552 4.59635 1.63281 4.36719C1.6901 4.13802 1.74479 3.95573 1.79688 3.82031C1.85938 3.64323 1.94271 3.47656 2.04688 3.32031C2.15104 3.16406 2.27083 3.02344 2.40625 2.89844C2.53125 2.76302 2.67188 2.64583 2.82812 2.54688C2.98438 2.44792 3.14583 2.36719 3.3125 2.30469C3.45833 2.24219 3.64583 2.1849 3.875 2.13281C4.10417 2.08073 4.41146 2.04427 4.79688 2.02344C5.22396 2.0026 5.60417 1.98958 5.9375 1.98438C6.27083 1.97917 6.96875 1.97656 8.03125 1.97656C9.10417 1.97656 9.80729 1.97917 10.1406 1.98438C10.474 1.98958 10.849 2.0026 11.2656 2.02344C11.6615 2.04427 11.974 2.08073 12.2031 2.13281C12.4323 2.1849 12.6146 2.24219 12.75 2.30469C12.9271 2.36719 13.0938 2.44792 13.25 2.54688C13.4062 2.64583 13.5469 2.76302 13.6719 2.89844C13.8073 3.02344 13.9245 3.16406 14.0234 3.32031C14.1224 3.47656 14.2031 3.64323 14.2656 3.82031C14.3177 3.95573 14.3724 4.13802 14.4297 4.36719C14.487 4.59635 14.526 4.90885 14.5469 5.30469C14.5677 5.72135 14.5807 6.09635 14.5859 6.42969C14.5911 6.76302 14.5938 7.46094 14.5938 8.52344C14.5938 9.59635 14.5911 10.2995 14.5859 10.6328C14.5807 10.9661 14.5677 11.3411 14.5469 11.7578ZM8.03125 4.41406C7.45833 4.41406 6.92708 4.52344 6.4375 4.74219C5.9375 4.95052 5.5 5.24219 5.125 5.61719C4.75 5.99219 4.45833 6.42969 4.25 6.92969C4.03125 7.42969 3.92188 7.96094 3.92188 8.52344C3.92188 9.09635 4.03125 9.6276 4.25 10.1172C4.45833 10.6172 4.75 11.0547 5.125 11.4297C5.5 11.8047 5.9375 12.0964 6.4375 12.3047C6.92708 12.5234 7.45833 12.6328 8.03125 12.6328C8.59375 12.6328 9.125 12.5234 9.625 12.3047C10.125 12.0964 10.5625 11.8047 10.9375 11.4297C11.3125 11.0547 11.6042 10.6172 11.8125 10.1172C12.0312 9.6276 12.1406 9.09635 12.1406 8.52344C12.1406 7.96094 12.0312 7.42969 11.8125 6.92969C11.6042 6.42969 11.3125 5.99219 10.9375 5.61719C10.5625 5.24219 10.125 4.95052 9.625 4.74219C9.125 4.52344 8.59375 4.41406 8.03125 4.41406ZM9.92188 10.4141C9.92188 10.4141 9.79167 10.5443 9.53125 10.8047C9.27083 11.0651 8.77083 11.1953 8.03125 11.1953C7.29167 11.1953 6.66146 10.9349 6.14062 10.4141C5.61979 9.89323 5.35938 9.26302 5.35938 8.52344C5.35938 7.78385 5.61979 7.15365 6.14062 6.63281C6.66146 6.11198 7.29167 5.85156 8.03125 5.85156C8.77083 5.85156 9.40104 6.11198 9.92188 6.63281C10.4427 7.15365 10.7031 7.78385 10.7031 8.52344C10.7031 9.26302 10.4427 9.89323 9.92188 10.4141ZM13.2656 4.25781C13.2656 4.51823 13.1719 4.74219 12.9844 4.92969C12.7969 5.11719 12.5677 5.21094 12.2969 5.21094C12.0365 5.21094 11.8125 5.11719 11.625 4.92969C11.4375 4.74219 11.3438 4.51823 11.3438 4.25781C11.3438 3.98698 11.4375 3.75781 11.625 3.57031C11.8125 3.38281 12.0365 3.28906 12.2969 3.28906C12.5677 3.28906 12.7969 3.38281 12.9844 3.57031C13.1719 3.75781 13.2656 3.98698 13.2656 4.25781Z" fill="#0A1931"/>
</svg>
