<svg width="16" height="17" viewBox="0 0 16 17" fill="none" xmlns="http://www.w3.org/2000/svg">
<path d="M11.1094 1.14844C10.1406 0.731771 9.10417 0.523438 8 0.523438C6.89583 0.523438 5.85938 0.731771 4.89062 1.14844C3.92188 1.57552 3.07552 2.15104 2.35156 2.875C1.6276 3.59896 1.05208 4.44531 0.625 5.41406C0.208333 6.38281 0 7.41927 0 8.52344C0 8.96094 0.0364583 9.38802 0.109375 9.80469C0.171875 10.2318 0.268229 10.6406 0.398438 11.0312C0.528646 11.4219 0.6875 11.7995 0.875 12.1641C1.0625 12.5286 1.27604 12.8776 1.51562 13.2109L0.53125 16.1797L3.59375 15.1953C4.22917 15.6224 4.91927 15.9505 5.66406 16.1797C6.40885 16.4089 7.1875 16.5234 8 16.5234C9.10417 16.5234 10.1406 16.3151 11.1094 15.8984C12.0781 15.4714 12.9245 14.8958 13.6484 14.1719C14.3724 13.4479 14.9479 12.6016 15.375 11.6328C15.7917 10.6641 16 9.6276 16 8.52344C16 7.41927 15.7917 6.38281 15.375 5.41406C14.9479 4.44531 14.3724 3.59896 13.6484 2.875C12.9245 2.15104 12.0781 1.57552 11.1094 1.14844ZM12.8203 11.1016C12.8203 11.1016 12.8164 11.1536 12.8086 11.2578C12.8008 11.362 12.75 11.5495 12.6562 11.8203C12.5625 12.0911 12.3542 12.3307 12.0312 12.5391C11.7083 12.7474 11.3958 12.8828 11.0938 12.9453C10.8854 12.9974 10.5938 13.0052 10.2188 12.9688C9.84375 12.9323 9.19792 12.7266 8.28125 12.3516C7.69792 12.1016 7.16667 11.7891 6.6875 11.4141C6.20833 11.0286 5.79688 10.651 5.45312 10.2812C5.10938 9.91146 4.83854 9.58594 4.64062 9.30469C4.44271 9.02344 4.32812 8.86719 4.29688 8.83594C4.24479 8.7526 4.07552 8.47135 3.78906 7.99219C3.5026 7.51302 3.35938 6.98698 3.35938 6.41406C3.35938 5.84115 3.46615 5.40365 3.67969 5.10156C3.89323 4.79948 4.05729 4.59115 4.17188 4.47656C4.26562 4.3724 4.38802 4.29688 4.53906 4.25C4.6901 4.20312 4.83854 4.17969 4.98438 4.17969C5.03646 4.17969 5.08594 4.18229 5.13281 4.1875C5.17969 4.19271 5.21875 4.19531 5.25 4.19531C5.375 4.19531 5.47135 4.21354 5.53906 4.25C5.60677 4.28646 5.68229 4.39844 5.76562 4.58594C5.85938 4.8151 5.99479 5.14583 6.17188 5.57812C6.34896 6.01042 6.45312 6.25781 6.48438 6.32031C6.51562 6.3724 6.53906 6.4375 6.55469 6.51562C6.57031 6.59375 6.55729 6.67448 6.51562 6.75781C6.47396 6.83073 6.4349 6.89062 6.39844 6.9375C6.36198 6.98438 6.31771 7.04427 6.26562 7.11719C6.20312 7.1901 6.14323 7.25521 6.08594 7.3125C6.02865 7.36979 5.96875 7.4349 5.90625 7.50781C5.85417 7.57031 5.8099 7.63802 5.77344 7.71094C5.73698 7.78385 5.75 7.88281 5.8125 8.00781C5.88542 8.1224 6.03385 8.34115 6.25781 8.66406C6.48177 8.98698 6.76562 9.30469 7.10938 9.61719C7.55729 10.013 7.95052 10.2917 8.28906 10.4531C8.6276 10.6146 8.85938 10.7214 8.98438 10.7734C9.08854 10.8151 9.19271 10.8281 9.29688 10.8125C9.40104 10.7969 9.48438 10.7526 9.54688 10.6797C9.64062 10.5859 9.74219 10.4635 9.85156 10.3125C9.96094 10.1615 10.0677 10.0078 10.1719 9.85156C10.2552 9.73698 10.3464 9.66927 10.4453 9.64844C10.5443 9.6276 10.6458 9.63802 10.75 9.67969C10.8646 9.72135 11.1302 9.84375 11.5469 10.0469C11.9635 10.25 12.2292 10.3776 12.3438 10.4297C12.4583 10.4922 12.5547 10.5417 12.6328 10.5781C12.7109 10.6146 12.7656 10.6589 12.7969 10.7109C12.8281 10.763 12.8359 10.8932 12.8203 11.1016Z" fill="#0A1931"/>
</svg>
