<svg width="94" height="66" viewBox="0 0 94 66" fill="none" xmlns="http://www.w3.org/2000/svg">
<path d="M93.5273 23.8281L88.0586 10.1562C87.5944 8.99887 86.7932 8.00766 85.7589 7.31114C84.7245 6.61462 83.5048 6.24493 82.2578 6.25H68.75V3.125C68.75 2.2962 68.4208 1.50134 67.8347 0.915292C67.2487 0.329241 66.4538 0 65.625 0H6.25C4.5924 0 3.00268 0.65848 1.83058 1.83058C0.65848 3.00268 0 4.5924 0 6.25V50C0 51.6576 0.65848 53.2473 1.83058 54.4194C3.00268 55.5915 4.5924 56.25 6.25 56.25H12.8906C13.5791 58.9388 15.1428 61.322 17.3353 63.0239C19.5279 64.7257 22.2245 65.6495 25 65.6495C27.7755 65.6495 30.4721 64.7257 32.6647 63.0239C34.8572 61.322 36.4209 58.9388 37.1094 56.25H56.6406C57.3291 58.9388 58.8928 61.322 61.0853 63.0239C63.2779 64.7257 65.9745 65.6495 68.75 65.6495C71.5255 65.6495 74.2221 64.7257 76.4147 63.0239C78.6072 61.322 80.1709 58.9388 80.8594 56.25H87.5C89.1576 56.25 90.7473 55.5915 91.9194 54.4194C93.0915 53.2473 93.75 51.6576 93.75 50V25C93.7507 24.5988 93.6752 24.2011 93.5273 23.8281ZM25 59.375C23.7639 59.375 22.5555 59.0084 21.5277 58.3217C20.4999 57.6349 19.6988 56.6588 19.2258 55.5168C18.7527 54.3747 18.6289 53.1181 18.8701 51.9057C19.1112 50.6933 19.7065 49.5797 20.5806 48.7056C21.4547 47.8315 22.5683 47.2362 23.7807 46.9951C24.9931 46.7539 26.2497 46.8777 27.3918 47.3507C28.5338 47.8238 29.5099 48.6249 30.1967 49.6527C30.8834 50.6805 31.25 51.8889 31.25 53.125C31.25 54.7826 30.5915 56.3723 29.4194 57.5444C28.2473 58.7165 26.6576 59.375 25 59.375ZM6.25 31.25V6.25H62.5V31.25H6.25ZM68.75 59.375C67.5139 59.375 66.3055 59.0084 65.2777 58.3217C64.2499 57.6349 63.4488 56.6588 62.9758 55.5168C62.5027 54.3747 62.3789 53.1181 62.6201 51.9057C62.8612 50.6933 63.4565 49.5797 64.3306 48.7056C65.2047 47.8315 66.3183 47.2362 67.5307 46.9951C68.7431 46.7539 69.9997 46.8777 71.1418 47.3507C72.2838 47.8238 73.2599 48.6249 73.9467 49.6527C74.6334 50.6805 75 51.8889 75 53.125C75 54.7826 74.3415 56.3723 73.1694 57.5444C71.9973 58.7165 70.4076 59.375 68.75 59.375ZM68.75 21.875V12.5H82.2578L86.0078 21.875H68.75Z" fill="#FEC130"/>
</svg>
