<svg width="94" height="72" viewBox="0 0 94 72" fill="none" xmlns="http://www.w3.org/2000/svg">
<path d="M90.625 28.125H86.4062L75.5547 3.71094C75.0636 2.60635 74.2627 1.66789 73.2491 1.00924C72.2355 0.350584 71.0526 1.44695e-05 69.8438 0H23.9062C22.6974 1.44695e-05 21.5145 0.350584 20.5009 1.00924C19.4873 1.66789 18.6864 2.60635 18.1953 3.71094L7.34375 28.125H3.125C2.2962 28.125 1.50134 28.4542 0.915291 29.0403C0.32924 29.6263 0 30.4212 0 31.25C0 32.0788 0.32924 32.8737 0.915291 33.4597C1.50134 34.0458 2.2962 34.375 3.125 34.375H6.25V65.625C6.25 67.2826 6.90848 68.8723 8.08058 70.0444C9.25268 71.2165 10.8424 71.875 12.5 71.875H21.875C23.5326 71.875 25.1223 71.2165 26.2944 70.0444C27.4665 68.8723 28.125 67.2826 28.125 65.625V62.5H65.625V65.625C65.625 67.2826 66.2835 68.8723 67.4556 70.0444C68.6277 71.2165 70.2174 71.875 71.875 71.875H81.25C82.9076 71.875 84.4973 71.2165 85.6694 70.0444C86.8415 68.8723 87.5 67.2826 87.5 65.625V34.375H90.625C91.4538 34.375 92.2487 34.0458 92.8347 33.4597C93.4208 32.8737 93.75 32.0788 93.75 31.25C93.75 30.4212 93.4208 29.6263 92.8347 29.0403C92.2487 28.4542 91.4538 28.125 90.625 28.125ZM28.125 46.875H18.75C17.9212 46.875 17.1263 46.5458 16.5403 45.9597C15.9542 45.3737 15.625 44.5788 15.625 43.75C15.625 42.9212 15.9542 42.1263 16.5403 41.5403C17.1263 40.9542 17.9212 40.625 18.75 40.625H28.125C28.9538 40.625 29.7487 40.9542 30.3347 41.5403C30.9208 42.1263 31.25 42.9212 31.25 43.75C31.25 44.5788 30.9208 45.3737 30.3347 45.9597C29.7487 46.5458 28.9538 46.875 28.125 46.875ZM75 46.875H65.625C64.7962 46.875 64.0013 46.5458 63.4153 45.9597C62.8292 45.3737 62.5 44.5788 62.5 43.75C62.5 42.9212 62.8292 42.1263 63.4153 41.5403C64.0013 40.9542 64.7962 40.625 65.625 40.625H75C75.8288 40.625 76.6237 40.9542 77.2097 41.5403C77.7958 42.1263 78.125 42.9212 78.125 43.75C78.125 44.5788 77.7958 45.3737 77.2097 45.9597C76.6237 46.5458 75.8288 46.875 75 46.875ZM14.1836 28.125L23.9062 6.25H69.8438L79.5664 28.125H14.1836Z" fill="#044E9E"/>
</svg>
