<svg width="69" height="75" viewBox="0 0 69 75" fill="none" xmlns="http://www.w3.org/2000/svg">
<path d="M25 0C17.0063 0 10.5 5.325 6.3875 12.1875C2.26875 19.0312 0 27.85 0 37.5C0 47.15 2.26875 55.9625 6.3875 62.8125C10.5 69.6813 17.0125 75 25 75H43.75C51.7438 75 58.25 69.675 62.3688 62.8125C66.4812 55.9625 68.75 47.15 68.75 37.5C68.75 27.85 66.4812 19.0438 62.3688 12.1875C58.25 5.31875 51.7438 0 43.75 0H25ZM43.75 12.5C46.1125 12.5 48.975 14.1625 51.65 18.6188C54.3125 23.0625 56.25 29.875 56.25 37.5C56.25 45.125 54.3187 51.9375 51.65 56.3812C48.975 60.8375 46.1125 62.5 43.75 62.5C41.3875 62.5 38.525 60.8375 35.85 56.3812C33.1875 51.9375 31.25 45.125 31.25 37.5C31.25 29.875 33.1813 23.0625 35.85 18.6188C38.525 14.1625 41.3875 12.5 43.75 12.5ZM43.75 18.75C43.4375 18.75 43.0125 18.8625 42.3 19.5625C41.7888 20.0883 41.3458 20.6762 40.9813 21.3125C42.7188 26.0125 43.75 31.5625 43.75 37.5C43.75 43.4375 42.7188 48.9875 40.9813 53.6875C41.4313 54.4375 41.8875 55.025 42.2938 55.4375C43.0125 56.1375 43.4437 56.25 43.75 56.25C44.0563 56.25 44.4875 56.1375 45.2 55.4375C45.9188 54.725 46.775 53.45 47.5125 51.7313C48.5188 49.375 49.2937 46.1813 49.7 42.5875C49.8375 40.9125 50 39.2375 50 37.5C50 35.7625 49.8438 34.0875 49.6938 32.4125C49.2938 28.8187 48.5187 25.625 47.5062 23.2688C46.9724 21.9037 46.1905 20.6492 45.2 19.5688C44.4875 18.8625 44.0625 18.75 43.75 18.75Z" fill="#FEC130"/>
</svg>
